<svg xmlns="http://www.w3.org/2000/svg" viewBox="0 0 260.03 100.09"><defs><style>.cls-1{fill:#fff;}.cls-2{fill:#fab600;}.cls-3{fill:#1d1d1b;}.cls-4{fill:#007637;}.cls-5{fill:#e62d2f;}.cls-6{fill:#1e1500;}</style></defs><title>Afro-Turco-Logo</title><g id="katman_2" data-name="katman 2"><g id="Layer_1" data-name="Layer 1"><rect class="cls-1" y="44.15" width="130.57" height="36.29"/><rect class="cls-1" x="126.19" y="44.15" width="133.84" height="36.29"/><rect class="cls-2" x="2.02" y="46.14" width="128.54" height="32.32"/><path class="cls-3" d="M258,46.14H156.89a11.12,11.12,0,0,0-1.15,1.39,13.37,13.37,0,0,1-2.84,2.58c-3,2.4-4.85,3.54-6.58,7a.21.21,0,0,0,0,.1c0,.52,1.72,1.35,1.79,2,0,.43.16.86.18,1.3,0,0,0,.07,0,.11,0,.35-.08.76-.08,1.1a.76.76,0,0,0,.13.5c1,1.22,1.18,2.95,1.18,4.67,0,.66,0,1.33,0,2a10.32,10.32,0,0,0,.16,2.08,1.68,1.68,0,0,1,0,.35c0,1.9-2.58,5.45-3.81,6.3a7,7,0,0,1-2,.87h7.63a3.09,3.09,0,0,0-.27-.92,6.49,6.49,0,0,1-.54-3.19c.08-1.12,1.7-1.84,2.63-1.84s1.47-.72,2.4-1.44c.46-.36.13-1.12.24-1.59l.22-.27a.28.28,0,0,0,.25.2.38.38,0,0,0,.19-.06c.54-.32,1.31-3.19,1.31-3.19a3.83,3.83,0,0,1,2.34,3.15,23.94,23.94,0,0,1,.09,3.94c0,.14-.09.19-.17.19s-.45-.27-.45-.27.38,1.1-.94,4.05l-.54,1.22H258Z"/><path class="cls-1" d="M160.68,35.82c-2.9.69-5.52,1.38-8.17,1.85-.44.08-1.17-.66-1.54-1.2-.5-.73-.63-1.78-1.2-2.42-1.74-2-4.5-3-4.83-6.17,0-.21-.36-.37-.5-.59a18.32,18.32,0,0,1-1.39-2.4c-.74-1.76-1.27-3.63-2.09-5.35a44.21,44.21,0,0,0-2.51-4.14c1.76-1.26,1.92-2.86.86-5.17a9.32,9.32,0,0,0-5.37-.4,9.21,9.21,0,0,1-5.13-.33c-1.36-.61-2.83-.95-4.21-1.5-2.15-.86-3.77,0-4.34,2.31-.08.31-.67.77-.91.7-1.39-.39-3.26-.49-4-1.48-1.28-1.7-2.84-1.57-4.44-2-.74-.18-1.82-1-1.88-1.57a19,19,0,0,1,.53-4.29,59.26,59.26,0,0,1-8,.65A15.8,15.8,0,0,0,93.7,3.9c-2.12,1-4.1,1.18-5.82-.06a50.31,50.31,0,0,0-4.27,3.63,5.09,5.09,0,0,0-1.42,2.87,3.18,3.18,0,0,1-1.77,3,7.75,7.75,0,0,0-2.75,1.84C76,17.49,74.5,20,73,22.48c-.47.77-.94,1.64.4,2.11.15.05.25.44.27.69A16,16,0,0,1,73,31.83a5.82,5.82,0,0,0,.7,4.27c1.25,1.93,3.59,3,4.26,5.5a1.82,1.82,0,0,0,.57,1C80.25,43.77,82,45,83.81,46c.62.36,1.59,1.19,2.24.95,2-.74,2.47-.86,4.51-.3a1.54,1.54,0,0,0,.84-.14,1.6,1.6,0,0,1,1.56.09,1.94,1.94,0,0,0,1.41.2c1.4-.3,2.79-.74,4.18.61.66.64,1.32.44,2.13.24a4.8,4.8,0,0,1,1.55-.19c.72.05,1.83.21,1.82.76a18.21,18.21,0,0,1,0,4.12,4.53,4.53,0,0,0,.36,2.08c.71,1.16.92,2.63,1.69,3.76s1.82,1,2.23,2.17c.57,1.67.52,3.62,1.23,5.19s.32,2.71-.34,4.2c-1.19,2.66-2.35,5.37-.27,8.42,1.24,1.8,4.51,3.82,4.68,6.34a10.2,10.2,0,0,0,2.54,6.52,7.9,7.9,0,0,1,2.05,4.56c.11,2.27,1,3.47,3.18,3.06a22.37,22.37,0,0,1,4.11-.65c5.52,0,11.68-5.84,12-11.55,3.19-1.62,3.67-2.34,3.08-4.68a6.41,6.41,0,0,1-.42-1.53c0-.64.28-.19.66-.52,1.4-1.2,3.57-1.12,5.09-2.18,1.31-.91,4.15-4.87,3.77-6.65-.53-2.49.59-6.46-1.32-8.71-.28-.33,0-1.13,0-1.7s-.13-.86-.18-1.3c-.08-.68-2-1.57-1.77-2.08,1.73-3.5,3.59-4.64,6.58-7a13.38,13.38,0,0,0,2.84-2.58,92.58,92.58,0,0,0,4.87-8c.66-1.21.94-2.71.08-3.74"/><path class="cls-1" d="M160.84,33.53c-2.9.69-3.76,1.43-6.41,1.91-.44.08-.53,1-.9.5a21.58,21.58,0,0,0-1.33-2.21c-1.74-2-4.5-3-4.83-6.17,0-.21-.36-.37-.5-.59a18.41,18.41,0,0,1-1.39-2.4c-.74-1.76-1.27-3.63-2.09-5.35a44.22,44.22,0,0,0-2.51-4.14c1.76-1.26-.24-4.71-1.31-7A7.06,7.06,0,0,0,135,7.66a7,7,0,0,1-4.4-.32c-1.36-.61-3.95-1.15-5.33-1.71-2.15-.86-4.44-1.81-5,.5-.08.31-.67,1.67-.9,1.6a1.81,1.81,0,0,0-1.3.1c-.43.18-.72.37-1.15-.2-1.28-1.7-1.17-1.31-2.77-1.71a2.63,2.63,0,0,1-1.71-1.71c-.13-1.32-1.24-2.64-1-4.23A78.32,78.32,0,0,1,102,0a16.87,16.87,0,0,0-8.13,1.7c-2.12,1-4.24,3.35-6,2.12a2.66,2.66,0,0,1-2.49.31c-.81-.18-1.58-.35-2.19.29s-2.54,2.31-2.61,3.31C80.5,9.2,79.7,9.31,78.48,10c-1,.52-2.09,2.56-2.71,3.41-1.69,2.33-3.7,7.31-5.22,9.78-.47.77-.94,1.64.4,2.11.15.05.25.44.27.69.24,2.23-.71,4-1.38,6.2a5.83,5.83,0,0,0,.7,4.27c1.25,1.93,4.55,3.44,5.22,5.94a1.82,1.82,0,0,0,.57,1C78.08,44.54,82,45,83.81,46c.62.36,1.59,1.19,2.24.95,2-.74,2.47-.86,4.51-.3a1.53,1.53,0,0,0,.84-.14,1.6,1.6,0,0,1,1.56.09,1.94,1.94,0,0,0,1.41.2c1.4-.3,2.79-.74,4.18.61.66.64,1.32.44,2.13.24a4.8,4.8,0,0,1,1.55-.19c.72.05,1.83.21,1.82.76a18.21,18.21,0,0,1,0,4.12,4.53,4.53,0,0,0,.36,2.08c.71,1.16.92,2.63,1.69,3.76s1.82,1,2.23,2.17c.57,1.67.52,3.62,1.23,5.19s.32,2.71-.34,4.2c-1.19,2.66-2.35,5.37-.27,8.42a11.59,11.59,0,0,1,2,6.18,14.13,14.13,0,0,0,3.54,7.42,6.82,6.82,0,0,1,1.71,4.31c.11,2.27,1.58,4.33,3.81,3.91,1.37-.25,6.48-.71,7.85-.7,5.52,0,11.51-6.62,11.81-12.33,3.19-1.62,1.54-2.86,1-5.2a6.41,6.41,0,0,1-.42-1.53c0-.64.28-.19.66-.52,1.4-1.2,3.57-1.12,5.09-2.18,1.31-.91,4.15-4.87,3.77-6.65-.53-2.49.59-6.46-1.32-8.71-.28-.33,0-1.13,0-1.7s-.13-.86-.18-1.3c-.08-.68-2-1.57-1.77-2.08,1.73-3.5,3.59-4.64,6.58-7a13.38,13.38,0,0,0,2.84-2.58c1.75-2.56,5.73-4.95,7.22-7.68.66-1.21.7-5.52-2.12-6.32"/><path class="cls-4" d="M93.5,10.95s-6,1.43-7.34,2.37A52.38,52.38,0,0,1,80.61,17c-1.59.72-4.91,1.76-4.91,1.76S75,18.11,76,16.9s1.59-2.09,2.17-2.59a9.62,9.62,0,0,1,2.27-1l1.64-1.16.9-.94s-1.16-.17-1-1a11.69,11.69,0,0,1,.9-2.26,3.4,3.4,0,0,1,1.16-1,30.92,30.92,0,0,1,3.54-1.1A45.18,45.18,0,0,0,93.5,4.45c3.86-1,6.13-1.93,8.3-2.26a42.22,42.22,0,0,1,4.7-.44c1.06-.06,2.85,0,2.85,0s.58.72.26.94-1.37.83-.85,1.27,1.3.72.94,1.16-1.63.55-1.68.88,1.06-.11,1.27.33.48,1.21,1.06,1.21,2.22-.06,2.22-.06,1.48.44.74,1-2.69.33-2.69.33-5.18,2.7-8.08,3.75-8.82,5-8.82,5a68.2,68.2,0,0,0-5.92,4.35C86.58,23.13,82,26.82,82,26.82a18.43,18.43,0,0,0-2.38,2.81c-.05.44-.05,1.16.9.44s4.65-4.35,8-5.18,2.91-1.71,4.49-2,5.13-3.09,6.18-4.08,7.82-4.24,9.19-5.18,5.23-2.37,5.6-2.92a3.25,3.25,0,0,1,2.38-1c1-.06,2.43,1.1,2.59,1.16s2,.33,1.9-.66-.9-2.26,1.32-2.7,3.43.72,3.49,1-.74.72-.74.72a7.46,7.46,0,0,0-2.06.83c-.69.5-3.8,1.87-4.17,2.26s-3.06,2-4.49,2.87-4,1.87-4.86,2.43-2.8,1.49-3.28,2.43-2.27,1.32-3,1.87-3.49,1.65-4.39,2.43-4.28,3-4.76,4a21.24,21.24,0,0,1-3,3.42,17,17,0,0,0-1.32,2,16.83,16.83,0,0,0,3.49-2.09,44.07,44.07,0,0,1,6-4.24A77.34,77.34,0,0,0,105.71,23c1.37-1,5.18-2.7,6.24-3.64s4.76-2.7,6.18-4,4.33-2.7,5.76-3.64a21.58,21.58,0,0,0,3.28-2.54c.37-.44,1.11.88,3.49.88a10.93,10.93,0,0,0,3.65-.5s1.9-.5,1.8.06-4.91,3.91-6.08,5.07-5.65,3.64-6.6,4.24-2.54,2.09-3.54,2.65-2,.66-3.54,1.49-2.85,1.38-3.91,1.87a9.7,9.7,0,0,0-2.8,2.31A9.39,9.39,0,0,1,106.87,29a8,8,0,0,0-2.48,2.26c-.42.61-1.32.94-2.06,1.6a38.61,38.61,0,0,0-3,2.7c-.53.66-.42,1-.42,1s4.86-2.81,6.13-4.13,2.27-1.54,3.22-2.26,2.06-2.2,3.59-2.81,2.32-1.93,4.49-2.81a25,25,0,0,0,5.44-3.14,9.75,9.75,0,0,1,4-2c2.32-.72,2.27-1.82,4-2.09s4-.28,5.13-1.65a3.36,3.36,0,0,1,3-1.38,2.69,2.69,0,0,1,1.74.39,2.41,2.41,0,0,0-1.06.39c-.26.28-.05,1.27.37,1.54s.69,1.38.69,1.38-3.86,2.65-7,2.76A11.45,11.45,0,0,0,126.63,23s-5.18,2.31-5.34,2.87-3,1.71-3.75,2.15-3.38,2.2-4.54,2.81-4.07,2.37-4.44,3.14-3.43,3-4.12,3.47-4,2.09-5,3.2S96,43,95.67,43.8s-2.85,1.49-3.12-.61a7.14,7.14,0,0,1,.63-4.79c.74-1.21,2.54-2.65,2.85-4s-.74-.28-1.32.33-6,3.47-6.66,4S84,42.14,83,42.47s-1.74,1.32-3.28.28-2.22-1-1.59-2.54a6.07,6.07,0,0,1,2.27-2.92c1-.77,4.12-2.92,5-4.3a14,14,0,0,1,2.85-2.81c.42-.44.74-1.16.05-1.16S85,31,84.41,31.78A5.6,5.6,0,0,1,81,33.22c-1.43.22-3.7,1.71-5.23,2.48s-2.64.66-2.85-.28a6.1,6.1,0,0,1,1-4.41c1.06-1.43,3.06-3.75,4-4.85a10.78,10.78,0,0,1,2.85-2.09,28.53,28.53,0,0,0-4.23,2c-.79.66-1.85,1.43-2.48.77s-.48-.66-.32-1,.26-1.32-.11-1.6-1.43.11-1-.55,1.06.11,2.59-.88,3.86-2,4.7-3,3.7-2.37,5-3.25a25.4,25.4,0,0,1,3.86-2.81c1.85-.94,2.64-1,3.33-1.6s1.43-1.21,1.43-1.21"/><path class="cls-5" d="M140.74,19.15s-1.67-1.39-2.94-1.11a32.39,32.39,0,0,0-4.21,1.11c-.27.21-1.88.5-2.67,1.25s-4.74,3.06-5.27,3.69a15.43,15.43,0,0,1-3.87,2.37,16.18,16.18,0,0,0-4.27,2.37c-.67.77-2.4,1-2.6,1.6a7.76,7.76,0,0,1-2.47,2.44c-1.13.77-1.67,1.74-2.87,2.09s-1.63.94-2.47,1-2.8,2.44-4.07,3.27-2.54,2.3-3.54,2.72-1.74.84-1.2,1.25,1.87.07,2.47.63.8,1.67,1.87.7,3-2.72,4.81-4a11.34,11.34,0,0,1,3.47-2,12.68,12.68,0,0,0,3.94-2.85c.8-.84,2.74-1.81,4.14-3.13a14.84,14.84,0,0,1,4.87-2.92c1.07-.28-1,1.74-1.67,1.88a4.9,4.9,0,0,0-2.4,1.74c-.2.56-2.6,1.39-3.34,2.23s-1.6,1.25-3,2.58-3.54,3.06-4.27,3.83a30.92,30.92,0,0,0-2.54,2.72,5.27,5.27,0,0,1-1.94,1.25c-.27.14.07.77.73.49s1.27-.56,1.6.07A4.25,4.25,0,0,1,107,49c-.2.7-.27,2.37.13,1.88s1.27-1.32,2.67-2.72,3.27-3.34,4.34-4.18a30.63,30.63,0,0,1,4.47-2.58c2-1,4.94-2.79,4.94-2.79s.73.07.47.28a37.23,37.23,0,0,0-3.81,2.37c-.6.63-1.6,2.16-2.34,2.78a3.45,3.45,0,0,1-2.54,1c-1.2,0-2.27,1.53-2.27,1.53a48.82,48.82,0,0,0-4.14,4c-.53.84-2.07,2.16-1.94,3.83s2.87,1.74,3.87,1,6.14-3.9,6.68-4.87,3.27-2.09,4.94-3.34,4.07-2.44,5.41-3.27,1.07-1.6,3.27-1.88,2.87-1.95,3.74-2.58,2.4-1,3.74-2.6,1.94-1.3,2.14-1-1.8,1.6-2.34,2.23-.47,1.46-1.54,1.88-2.6.56-3.27,1.53-2.34,1.88-2.8,2.51-2.6,2-3.4,2.92-3.47,3.27-4.14,4-2.9,1.53-3.82,2.16a11.93,11.93,0,0,0-2.52,1.88c-.73.84-3.34,1.6-3.67,1.88A14.91,14.91,0,0,0,111,59.33c-.27.56-.27,1.6,0,1.74a3.66,3.66,0,0,1,.73,1.88c0,.49.4,1.67,1.34.42s1.8-.91,3-1.67A25.91,25.91,0,0,0,120.31,58c.73-.91,2.6-1.67,3.81-2.72s3.4-2.58,4.34-3.34A14.42,14.42,0,0,1,132,49.72c2-1,2.4-1.74,4-2.65s2.74-1.18,4.21-2.51,2.74-1.12,4.14-2.51,1.27-1,3.27-1.67a13.33,13.33,0,0,1,3.87-1c1.47-.14,3.27-.77,4.61-.84s2.87.07,3.6-.07,1.2.77,1.13-.63-.27-2.09-.93-2.09a8.81,8.81,0,0,0-2.8.84,13.19,13.19,0,0,1-3.87,1c-.93,0-2.34.21-2.34-.84s-.47-1.81-1-1.46-2.6,1.53-2.6,1.53-.87-.49.27-1.25,3-1.25,2.27-2a28.23,28.23,0,0,0-2.6-1.95,3.77,3.77,0,0,1-1.54-2.23,7.63,7.63,0,0,0-1.8,1,7.9,7.9,0,0,1-1.67,1.32,5.55,5.55,0,0,1-1.87.56c-.4,0-.47-.07.47-1s2.2-1.32,2.6-2.44.73-2-.73-2.58a5.57,5.57,0,0,0-4.67.7c-.87.77-3.8,1.81-4.81,2.3s-3.72,2.16-3.72,2.16l-3.15,1.39c-.33.14,1.43-1.11,3.15-2.72s4.59-4,5.26-4.87,1.4-1.25,2.94-2.44,1.74-1,2.4-1.6.87-.7.67-1.95"/><path class="cls-2" d="M160.3,37.26s-2-1.15-3-.77-4.07,2-4.07,2-4.27,2-5.21,2.52-2.6,1.79-3.47,2.21a3.45,3.45,0,0,0-1.74,1.39c-.27.56-1.6.56-2.27,1a10.4,10.4,0,0,0-1.87,2c-.4.56-1.94.49-2.54,1a35.65,35.65,0,0,0-2.74,2.65c-.33.49-2.2.77-3.2,1.67s-2.6,2.09-3.07,3-3.4,3.48-4.34,4.39-3.34,3-4.47,4a45.74,45.74,0,0,0-3.54,3.48,10.78,10.78,0,0,0-1.13,1.6s-1.8-.07-2.27.63-1.07,2.78.53,2.92,2,.77,3.07,0,1.07-1.46,2.4-2.72,2.27-1.39,3.07-2.58a13.38,13.38,0,0,1,2.27-2.37,17.72,17.72,0,0,1,3.34,0c.33.21-.8,1-1.33,1.74s-3.34,2.92-3.6,4a7.8,7.8,0,0,1-2.8,3.27,23.14,23.14,0,0,0-4,3.48A4.28,4.28,0,0,0,113,80.91c.07.91.93,2.3,2.14,1.53a12.72,12.72,0,0,0,3-3c.53-.77,1.13-.91,2.6-2.23s3.94-3.2,3.94-3.2.4.28-.13.84-3.54,2.79-4.14,4a50.79,50.79,0,0,1-3.54,5.29,9.09,9.09,0,0,1-2.4,1.88s-.6,2.37.93,1.74a12.48,12.48,0,0,0,4.07-3.13,71.07,71.07,0,0,1,5.87-6.06c1.74-1.46,3.2-1.88,3.81-3.06s1.27-1.88,4.21-2.78,3.4-2.23,4.74-3.27A9.69,9.69,0,0,1,142.54,67a10.68,10.68,0,0,0,3.6-1.6,2.75,2.75,0,0,0-.2-1.46c-.33-.91-.13-.56.13-1.18s.47-.56.07-1.11-.07-.49-.4-.91-.33-1.07-1-.88a7.38,7.38,0,0,0-2.07.74c-.47.35-1.2.07-2.4.56a13.28,13.28,0,0,1-2.4.7s3-3.55,3.47-5.15a9.2,9.2,0,0,1,3.14-4.94c2-1.67,3-2.3,4.21-3.9A9.63,9.63,0,0,1,152.42,45c1-.49,1.2-.91,1.94-1.88a5.4,5.4,0,0,1,3.14-1.67,6.55,6.55,0,0,0,2.8-1.67c.53-.56,1.67-2.3,0-2.51"/><path class="cls-3" d="M147.08,67.82c-.67,1.32-4.81,4-5.87,4.46s-1.74.56-2.34.9-1.54.7-2.85,1.39a17.26,17.26,0,0,0-2.89,1.95c-.8.63-2.4.56-4,1.32s-4.21,2.65-4.87,2.92-.87.84-3.32,2.3h0c-.66.71-1.18,1.3-1.42,1.6a13,13,0,0,1-3.7,3,1.4,1.4,0,0,0-.71,1.49c0,.21.93,1.11,1.2,1.32s.4.91,1.2.91,1.33-1,3.14-2.51a53.11,53.11,0,0,0,3.94-3.76c.67-.63,2.34-.91,2.87-1.74s3.94-2.44,4.54-2.72a4.85,4.85,0,0,1,1.55-.5c.21,0,.34.08.32.29-.07.63-3,2.58-5.47,4.39a38.55,38.55,0,0,0-4.54,3.48,36.69,36.69,0,0,0-4.54,4.53c-1.07,1.46-.87,1.81-.8,3.76,0,.93.46,1.32,1,1.32a3,3,0,0,0,2-1.19c1.2-1.39,3.34-2.51,4-3.41a5,5,0,0,1,3.2-2A42.75,42.75,0,0,0,135,88.22s.07.49-.59,1.18a35.8,35.8,0,0,1-6.95,4,19.13,19.13,0,0,0-5.87,4.87,6.39,6.39,0,0,1,2.74-.56,17.54,17.54,0,0,0,3.27-.35,28.08,28.08,0,0,0,4-1.39c1.4-.7,1.4-1.6,1.87-2.37a41.69,41.69,0,0,1,3.18-3.55c.71-.77.22-2.16,0-3.34-.14-.82.37-.87.91-.87h.22a2.37,2.37,0,0,0,.47,0,1.23,1.23,0,0,0,.73-1.67c-.27-.7-2.34-1.18-2.34-1.18a1.91,1.91,0,0,1,.8-1.18,3.78,3.78,0,0,0,1.8-2c.33-1,.4-1,.4-1a4.28,4.28,0,0,0,1.67-1.6c.47-1,2.4-1.88,2.94-2.16s2.47-1,2.8-2.09a4.12,4.12,0,0,0,0-2.16Z"/><path class="cls-6" d="M120.93,83.07c-2.45,1.46-4.15,4-5.08,4.54l0,0a13,13,0,0,0,3.7-3c.24-.3.76-.89,1.42-1.6"/><path class="cls-1" d="M155.92,69.48c-.12.47.22,1.23-.24,1.59-.93.72-1.47,1.44-2.4,1.44s-2.55.72-2.63,1.84a6.49,6.49,0,0,0,.54,3.19,2.49,2.49,0,0,1-.15,2.56c-.46.8-1.31,1.12-1.39,2.39a1.23,1.23,0,0,0,1.16,1.36A1.84,1.84,0,0,0,151,86c.93,1,1.79,1.22,2.41.82s1.94-.27,2.41-1.22a10.21,10.21,0,0,0,.93-2.79,28.2,28.2,0,0,1,2-5.57c1.31-3,.94-4.05.94-4.05s.54.56.62.08a23.91,23.91,0,0,0-.09-3.94,3.83,3.83,0,0,0-2.34-3.15s-.77,2.87-1.31,3.19a.27.27,0,0,1-.44-.14Z"/><path class="cls-3" d="M158.09,67.82s-.67,2.51-1.13,2.79a.32.32,0,0,1-.16.05.25.25,0,0,1-.21-.18l-.19.24a2.17,2.17,0,0,1-.7,1.21c-.8.63-1.27,1.25-2.07,1.25s-2.2.63-2.27,1.6a5.71,5.71,0,0,0,.47,2.78,2.19,2.19,0,0,1-.13,2.23c-.4.7-1.14,1-1.2,2.09a1.07,1.07,0,0,0,1,1.18s-.8,1.32,0,2.16a2.68,2.68,0,0,0,1.73,1,.86.86,0,0,0,.48-.13c.53-.35,1.74-.63,2.14-1.46a9,9,0,0,0,.8-2.44,21.68,21.68,0,0,1,1.47-4.87,11.21,11.21,0,0,0,1-4.73s.23.24.39.24.12,0,.14-.17c.07-.42.13-.21,0-2.23a2.85,2.85,0,0,0-1.54-2.58"/><path class="cls-1" d="M16.19,65.57,14.07,54.44,12,65.57ZM10.87,49.69H17.5l6,26.52H18.2l-1.31-6.66H11.21L9.94,76.21h-5Z"/><polygon class="cls-1" points="32.48 49.69 46.34 49.69 46.34 54.03 37.42 54.03 37.42 60.3 45.84 60.3 45.84 64.53 37.42 64.53 37.42 76.21 32.47 76.21 32.48 49.69"/><path class="cls-1" d="M63.67,60.9a4.1,4.1,0,0,0,3-.86A4.41,4.41,0,0,0,67.49,57a3.53,3.53,0,0,0-.91-2.77,5.19,5.19,0,0,0-3.32-.79H60.83V60.9ZM56.06,49.69h8.85q4,0,5.78,1.63t1.76,5.31a7.54,7.54,0,0,1-.95,4.07,3.76,3.76,0,0,1-2.79,1.75q3.51.93,3.67,5.94v.34l.14,3.51a8.84,8.84,0,0,0,.38,2.4,4,4,0,0,0,1,1.56H68a8.74,8.74,0,0,1-.31-1.58q-.1-.9-.14-2.56l-.07-2.77V68.6a4.1,4.1,0,0,0-1-3.17q-1-.86-4-.86H60.83V76.21H56.06Z"/><path class="cls-1" d="M88,71.19a2.83,2.83,0,0,0,2.83,1.7,2.78,2.78,0,0,0,2.78-1.66q.75-1.66.75-8.27t-.76-8.3a3.18,3.18,0,0,0-5.61,0q-.76,1.69-.76,8.3T88,71.19m-5.42-15a9.74,9.74,0,0,1,1.24-3.8,6.84,6.84,0,0,1,2.75-2.58,11.87,11.87,0,0,1,8.44,0,7,7,0,0,1,2.77,2.58,10,10,0,0,1,1.23,3.82A46.14,46.14,0,0,1,99.45,63a45.17,45.17,0,0,1-.4,6.71,10.31,10.31,0,0,1-1.22,3.83,7,7,0,0,1-2.77,2.58,11.87,11.87,0,0,1-8.44,0,6.84,6.84,0,0,1-2.75-2.58,9.74,9.74,0,0,1-1.24-3.8,45.44,45.44,0,0,1-.4-6.74,45.46,45.46,0,0,1,.4-6.74"/><polygon class="cls-1" points="167.14 54.07 161.46 54.07 161.46 49.69 177.76 49.69 177.76 54.07 172.08 54.07 172.08 76.21 167.14 76.21 167.14 54.07"/><path class="cls-1" d="M184.6,49.69V67.56q0,3.07.75,4.16A3,3,0,0,0,188,72.82a2.92,2.92,0,0,0,2.63-1.1,8.34,8.34,0,0,0,.73-4.22V49.69h4.87V68a18.06,18.06,0,0,1-.3,3.9,5.82,5.82,0,0,1-1,2.16,6.49,6.49,0,0,1-2.82,2.09,11.28,11.28,0,0,1-4.17.7q-4.55,0-6.41-2T179.66,68V49.69Z"/><path class="cls-1" d="M207.63,60.9a4.1,4.1,0,0,0,3-.86,4.41,4.41,0,0,0,.84-3.08,3.53,3.53,0,0,0-.91-2.77,5.19,5.19,0,0,0-3.32-.79h-2.43V60.9ZM200,49.69h8.85q4,0,5.78,1.63t1.76,5.31a7.54,7.54,0,0,1-.95,4.07,3.76,3.76,0,0,1-2.79,1.75q3.51.93,3.67,5.94v.34l.14,3.51a8.86,8.86,0,0,0,.38,2.4,4,4,0,0,0,1,1.56H212a8.79,8.79,0,0,1-.31-1.58q-.1-.9-.14-2.56l-.07-2.77V68.6a4.1,4.1,0,0,0-1-3.17q-1-.86-4-.86h-1.69V76.21H200Z"/><path class="cls-1" d="M235,66.76c0,.11,0,.28,0,.51s0,.4,0,.53q0,4.6-1.94,6.83t-5.93,2.23a9.62,9.62,0,0,1-3.25-.49,6,6,0,0,1-2.34-1.52A7.78,7.78,0,0,1,219.68,71a43.37,43.37,0,0,1-.55-8.4,51,51,0,0,1,.33-6.52,10.17,10.17,0,0,1,1-3.61,6.62,6.62,0,0,1,2.65-2.64,8.8,8.8,0,0,1,4-.82q4,0,5.86,2.1t1.85,6.75H230.1v-.64a5.92,5.92,0,0,0-.7-3.21A2.37,2.37,0,0,0,227.28,53a2.4,2.4,0,0,0-2.42,1.46q-.65,1.46-.65,8.09,0,7.16.63,8.71a2.36,2.36,0,0,0,2.4,1.55,2.39,2.39,0,0,0,2.31-1.21,10.51,10.51,0,0,0,.65-4.49v-.36Z"/><path class="cls-1" d="M243.56,71.19a2.83,2.83,0,0,0,2.83,1.7,2.77,2.77,0,0,0,2.78-1.66q.75-1.66.75-8.27t-.76-8.3a3.18,3.18,0,0,0-5.61,0q-.76,1.69-.76,8.3t.77,8.24m-5.42-15a9.75,9.75,0,0,1,1.24-3.8,6.84,6.84,0,0,1,2.75-2.58,11.87,11.87,0,0,1,8.44,0,7,7,0,0,1,2.77,2.58,10,10,0,0,1,1.23,3.82A46.09,46.09,0,0,1,255,63a45.17,45.17,0,0,1-.4,6.71,10.31,10.31,0,0,1-1.22,3.83,7,7,0,0,1-2.77,2.58,11.87,11.87,0,0,1-8.44,0,6.84,6.84,0,0,1-2.75-2.58,9.74,9.74,0,0,1-1.24-3.8,45.45,45.45,0,0,1-.4-6.74,45.47,45.47,0,0,1,.4-6.74"/><path class="cls-1" d="M163.93,93.82V90.1L161.16,85h1.16l1.41,2.65q.42.78.74,1.49.32-.69.78-1.55l1.4-2.58h1.1l-2.87,5.05v3.71Z"/><path class="cls-1" d="M167.23,90.64a3.82,3.82,0,0,1,.69-2.48,2.24,2.24,0,0,1,3.49,0,3.68,3.68,0,0,1,.7,2.42,4,4,0,0,1-.69,2.55,2.24,2.24,0,0,1-3.5,0A3.81,3.81,0,0,1,167.23,90.64Zm.9,0a3.08,3.08,0,0,0,.45,1.84,1.35,1.35,0,0,0,1.11.6,1.3,1.3,0,0,0,1.07-.61,3.1,3.1,0,0,0,.44-1.83,3.05,3.05,0,0,0-.45-1.83,1.34,1.34,0,0,0-1.11-.6,1.3,1.3,0,0,0-1.07.6A3.09,3.09,0,0,0,168.13,90.64Z"/><path class="cls-1" d="M176.56,93.82v-.93a2.28,2.28,0,0,1-.72.81,1.67,1.67,0,0,1-.93.27,1.69,1.69,0,0,1-1.05-.33,1.58,1.58,0,0,1-.58-.84,5.18,5.18,0,0,1-.15-1.39V87.47H174V91a5.54,5.54,0,0,0,.1,1.31,1,1,0,0,0,.36.53,1,1,0,0,0,.61.2,1.26,1.26,0,0,0,1-.52,2.83,2.83,0,0,0,.35-1.65v-3.4h.89v6.35Z"/><path class="cls-1" d="M178.74,93.82V87.47h.79v1a2.7,2.7,0,0,1,.56-.89.85.85,0,0,1,.57-.22,1.51,1.51,0,0,1,.9.35l-.3,1a1.11,1.11,0,0,0-.64-.23.77.77,0,0,0-.51.2,1.06,1.06,0,0,0-.33.55,4.94,4.94,0,0,0-.17,1.31v3.33Z"/><path class="cls-1" d="M185,93.82V85h2.71a4.36,4.36,0,0,1,1.41.17,1.91,1.91,0,0,1,1,.84,2.9,2.9,0,0,1,.37,1.51,3,3,0,0,1-.6,1.93,2.55,2.55,0,0,1-2.09.75h-1.84v3.57Zm1-4.6h1.86a1.78,1.78,0,0,0,1.29-.4,1.61,1.61,0,0,0,.41-1.2,1.85,1.85,0,0,0-.2-.89,1.13,1.13,0,0,0-.48-.51,2.63,2.63,0,0,0-1-.14h-1.84Z"/><path class="cls-1" d="M195,93a3.28,3.28,0,0,1-.92.69,2.23,2.23,0,0,1-1,.23,1.74,1.74,0,0,1-1.3-.49,1.79,1.79,0,0,1-.48-1.32,2,2,0,0,1,.23-1,1.7,1.7,0,0,1,.62-.66,3.27,3.27,0,0,1,1.2-.35,6.61,6.61,0,0,0,1.58-.38v-.27a1.39,1.39,0,0,0-.23-.92,1.26,1.26,0,0,0-1-.38,1.4,1.4,0,0,0-.92.26,1.66,1.66,0,0,0-.45,1l-.87-.14a2.41,2.41,0,0,1,.75-1.49,2.48,2.48,0,0,1,1.62-.47,2.31,2.31,0,0,1,1.29.31,1.32,1.32,0,0,1,.59.76,5.43,5.43,0,0,1,.12,1.33v1.44a18.19,18.19,0,0,0,.06,1.9,2.85,2.85,0,0,0,.22.76h-.92A2.69,2.69,0,0,1,195,93Zm-.07-2.41a5.6,5.6,0,0,1-1.44.41,2.7,2.7,0,0,0-.78.22.87.87,0,0,0-.34.35,1.07,1.07,0,0,0-.12.52,1,1,0,0,0,.28.73,1.07,1.07,0,0,0,.78.27,1.57,1.57,0,0,0,.86-.24,1.52,1.52,0,0,0,.58-.66,2.93,2.93,0,0,0,.19-1.19Z"/><path class="cls-1" d="M197.16,93.82V87.47H198v1a2.7,2.7,0,0,1,.56-.89.85.85,0,0,1,.57-.22,1.51,1.51,0,0,1,.9.35l-.3,1a1.11,1.11,0,0,0-.64-.23.77.77,0,0,0-.51.2,1.06,1.06,0,0,0-.33.55,4.94,4.94,0,0,0-.17,1.31v3.33Z"/><path class="cls-1" d="M202.46,92.85l.12,1a2.58,2.58,0,0,1-.66.1,1.35,1.35,0,0,1-.74-.18.93.93,0,0,1-.39-.5,4.84,4.84,0,0,1-.1-1.26V88.3H200v-.84h.65V85.89l.88-.65v2.22h.89v.84h-.89V92a1.75,1.75,0,0,0,.08.66.44.44,0,0,0,.42.22A2.33,2.33,0,0,0,202.46,92.85Z"/><path class="cls-1" d="M203.3,93.82V87.47h.79v.9a2,2,0,0,1,.7-.78,1.76,1.76,0,0,1,1-.26,1.82,1.82,0,0,1,.77.16,1.59,1.59,0,0,1,.57.43,1.74,1.74,0,0,1,.33.69,5.77,5.77,0,0,1,.11,1.3v3.91h-.88V89.95a3.18,3.18,0,0,0-.12-1,1,1,0,0,0-.37-.5,1,1,0,0,0-.59-.18,1.22,1.22,0,0,0-1,.47,2.65,2.65,0,0,0-.38,1.62v3.47Z"/><path class="cls-1" d="M212.44,91.77l.91.14a2.76,2.76,0,0,1-.82,1.53,2.17,2.17,0,0,1-1.48.52,2.2,2.2,0,0,1-1.79-.84,3.76,3.76,0,0,1-.68-2.43,3.94,3.94,0,0,1,.69-2.51,2.15,2.15,0,0,1,1.75-.86,2.07,2.07,0,0,1,1.69.85,3.87,3.87,0,0,1,.68,2.46v.29h-3.89a2.75,2.75,0,0,0,.5,1.62,1.34,1.34,0,0,0,1.08.54Q212.05,93.08,212.44,91.77ZM209.54,90h2.91a2.42,2.42,0,0,0-.35-1.23,1.28,1.28,0,0,0-2.09-.1A2.16,2.16,0,0,0,209.54,90Z"/><path class="cls-1" d="M214.47,93.82V87.47h.79v1a2.7,2.7,0,0,1,.56-.89.85.85,0,0,1,.57-.22,1.51,1.51,0,0,1,.9.35l-.3,1a1.11,1.11,0,0,0-.64-.23.77.77,0,0,0-.51.2,1.06,1.06,0,0,0-.33.55,4.94,4.94,0,0,0-.17,1.31v3.33Z"/><path class="cls-1" d="M220.61,86.29V85h.88v1.24Zm0,7.53V87.47h.88v6.35Z"/><path class="cls-1" d="M222.84,93.82V87.47h.79v.9a2,2,0,0,1,.7-.78,1.76,1.76,0,0,1,1-.26,1.82,1.82,0,0,1,.77.16,1.59,1.59,0,0,1,.57.43,1.74,1.74,0,0,1,.33.69,5.77,5.77,0,0,1,.11,1.3v3.91h-.88V89.95a3.18,3.18,0,0,0-.12-1,1,1,0,0,0-.37-.5,1,1,0,0,0-.59-.18,1.22,1.22,0,0,0-1,.47,2.65,2.65,0,0,0-.38,1.62v3.47Z"/><path class="cls-1" d="M230,93.82,232.78,85h1l2.95,8.77h-1.09l-.84-2.66h-3L231,93.82Zm2.06-3.6h2.45l-.75-2.43q-.35-1.12-.51-1.82a12.83,12.83,0,0,1-.39,1.67Z"/><path class="cls-1" d="M237.61,93.82V88.3h-.78v-.84h.78v-.68a3.06,3.06,0,0,1,.16-1.12,1.18,1.18,0,0,1,.48-.57,1.51,1.51,0,0,1,.81-.2,3.4,3.4,0,0,1,.83.11l-.13.93a2.4,2.4,0,0,0-.52-.06.69.69,0,0,0-.57.21,1.29,1.29,0,0,0-.17.79v.59h1v.84h-1v5.52Z"/><path class="cls-1" d="M240.16,93.82V87.47H241v1a2.7,2.7,0,0,1,.56-.89.85.85,0,0,1,.57-.22,1.51,1.51,0,0,1,.9.35l-.3,1a1.11,1.11,0,0,0-.64-.23.77.77,0,0,0-.51.2,1.06,1.06,0,0,0-.33.55,4.94,4.94,0,0,0-.17,1.31v3.33Z"/><path class="cls-1" d="M243.5,86.29V85h.88v1.24Zm0,7.53V87.47h.88v6.35Z"/><path class="cls-1" d="M249.14,91.49l.87.14a2.91,2.91,0,0,1-.75,1.73,2,2,0,0,1-1.44.6,2.06,2.06,0,0,1-1.68-.84,4,4,0,0,1-.66-2.49,3.9,3.9,0,0,1,.67-2.49,2.1,2.1,0,0,1,1.71-.83,2,2,0,0,1,1.36.5,2.46,2.46,0,0,1,.71,1.51l-.86.15a1.86,1.86,0,0,0-.44-1,1,1,0,0,0-.75-.32,1.29,1.29,0,0,0-1.08.58,3.11,3.11,0,0,0-.43,1.83,3.33,3.33,0,0,0,.41,1.88,1.24,1.24,0,0,0,1,.58,1.12,1.12,0,0,0,.86-.39A2.1,2.1,0,0,0,249.14,91.49Z"/><path class="cls-1" d="M254.15,93a3.28,3.28,0,0,1-.92.69,2.23,2.23,0,0,1-1,.23,1.74,1.74,0,0,1-1.3-.49,1.79,1.79,0,0,1-.48-1.32,2,2,0,0,1,.23-1,1.7,1.7,0,0,1,.62-.66,3.27,3.27,0,0,1,1.2-.35,6.61,6.61,0,0,0,1.58-.38v-.27a1.39,1.39,0,0,0-.23-.92,1.26,1.26,0,0,0-1-.38,1.4,1.4,0,0,0-.92.26,1.66,1.66,0,0,0-.45,1l-.87-.14a2.41,2.41,0,0,1,.75-1.49,2.48,2.48,0,0,1,1.62-.47,2.31,2.31,0,0,1,1.29.31,1.32,1.32,0,0,1,.59.76,5.43,5.43,0,0,1,.12,1.33v1.44a18.19,18.19,0,0,0,.06,1.9,2.85,2.85,0,0,0,.22.76h-.92A2.69,2.69,0,0,1,254.15,93Zm-.07-2.41a5.6,5.6,0,0,1-1.44.41,2.7,2.7,0,0,0-.78.22.87.87,0,0,0-.34.35,1.07,1.07,0,0,0-.12.52,1,1,0,0,0,.28.73,1.07,1.07,0,0,0,.78.27,1.57,1.57,0,0,0,.86-.24,1.52,1.52,0,0,0,.58-.66,2.93,2.93,0,0,0,.19-1.19Z"/></g></g></svg>